<svg width="156" height="80" viewBox="0 0 156 80" fill="none" xmlns="http://www.w3.org/2000/svg">
<g filter="url(#filter0_d_34_1006)">
<rect x="16" y="8" width="124" height="48" rx="8" fill="#4053FC"/>
<path d="M37.2215 34.804C37.2215 35.3933 37.0798 35.943 36.7965 36.453C36.5131 36.9517 36.0825 37.354 35.5045 37.66C34.9265 37.966 34.2181 38.119 33.3795 38.119C32.5635 38.119 31.8325 37.9773 31.1865 37.694C30.5405 37.3993 30.0248 36.9913 29.6395 36.47C29.2541 35.9487 29.0331 35.348 28.9764 34.668H31.0505C31.1071 35.1893 31.3281 35.637 31.7135 36.011C32.1101 36.385 32.6371 36.572 33.2945 36.572C33.8838 36.572 34.3371 36.4133 34.6545 36.096C34.9831 35.7787 35.1475 35.3707 35.1475 34.872C35.1475 34.4413 35.0285 34.09 34.7905 33.818C34.5525 33.5347 34.2578 33.3137 33.9065 33.155C33.5551 32.9963 33.0735 32.815 32.4615 32.611C31.7135 32.373 31.1015 32.135 30.6255 31.897C30.1608 31.659 29.7641 31.3133 29.4355 30.86C29.1068 30.4067 28.9425 29.8117 28.9425 29.075C28.9425 28.429 29.1011 27.8623 29.4184 27.375C29.7358 26.8877 30.1891 26.5137 30.7785 26.253C31.3678 25.981 32.0478 25.845 32.8185 25.845C34.0425 25.845 35.0115 26.1397 35.7255 26.729C36.4508 27.3183 36.8645 28.089 36.9665 29.041H34.8755C34.7961 28.5877 34.5808 28.2023 34.2295 27.885C33.8895 27.5563 33.4191 27.392 32.8185 27.392C32.2745 27.392 31.8381 27.5337 31.5095 27.817C31.1808 28.089 31.0165 28.4857 31.0165 29.007C31.0165 29.415 31.1298 29.755 31.3565 30.027C31.5831 30.2877 31.8665 30.4973 32.2065 30.656C32.5578 30.8033 33.0338 30.979 33.6345 31.183C34.3938 31.421 35.0115 31.6647 35.4875 31.914C35.9748 32.152 36.3828 32.5033 36.7115 32.968C37.0515 33.4327 37.2215 34.0447 37.2215 34.804ZM48.3756 32.866C48.3756 33.1833 48.3529 33.461 48.3076 33.699H41.0996C41.1336 34.6623 41.3999 35.3763 41.8986 35.841C42.3972 36.3057 43.0149 36.538 43.7516 36.538C44.3976 36.538 44.9416 36.3737 45.3836 36.045C45.8369 35.7163 46.1146 35.28 46.2166 34.736H48.2906C48.1659 35.3933 47.9052 35.977 47.5086 36.487C47.1119 36.997 46.5962 37.3993 45.9616 37.694C45.3269 37.9773 44.6186 38.119 43.8366 38.119C42.9299 38.119 42.1252 37.9263 41.4226 37.541C40.7312 37.1557 40.1872 36.6003 39.7906 35.875C39.3939 35.1497 39.1956 34.294 39.1956 33.308C39.1956 32.3333 39.3939 31.4833 39.7906 30.758C40.1872 30.0327 40.7312 29.4773 41.4226 29.092C42.1252 28.7067 42.9299 28.514 43.8366 28.514C44.7546 28.514 45.5536 28.7067 46.2336 29.092C46.9249 29.466 47.4519 29.9873 47.8146 30.656C48.1886 31.3133 48.3756 32.05 48.3756 32.866ZM46.4206 32.815C46.4432 32.203 46.3356 31.693 46.0976 31.285C45.8709 30.8657 45.5536 30.5597 45.1456 30.367C44.7489 30.163 44.3126 30.061 43.8366 30.061C43.0772 30.061 42.4426 30.2933 41.9326 30.758C41.4226 31.2227 41.1449 31.9083 41.0996 32.815H46.4206ZM59.4608 32.866C59.4608 33.1833 59.4381 33.461 59.3928 33.699H52.1848C52.2188 34.6623 52.4851 35.3763 52.9838 35.841C53.4824 36.3057 54.1001 36.538 54.8368 36.538C55.4828 36.538 56.0268 36.3737 56.4688 36.045C56.9221 35.7163 57.1998 35.28 57.3018 34.736H59.3758C59.2511 35.3933 58.9904 35.977 58.5938 36.487C58.1971 36.997 57.6814 37.3993 57.0468 37.694C56.4121 37.9773 55.7038 38.119 54.9218 38.119C54.0151 38.119 53.2104 37.9263 52.5078 37.541C51.8164 37.1557 51.2724 36.6003 50.8758 35.875C50.4791 35.1497 50.2808 34.294 50.2808 33.308C50.2808 32.3333 50.4791 31.4833 50.8758 30.758C51.2724 30.0327 51.8164 29.4773 52.5078 29.092C53.2104 28.7067 54.0151 28.514 54.9218 28.514C55.8398 28.514 56.6388 28.7067 57.3188 29.092C58.0101 29.466 58.5371 29.9873 58.8998 30.656C59.2738 31.3133 59.4608 32.05 59.4608 32.866ZM57.5058 32.815C57.5284 32.203 57.4208 31.693 57.1828 31.285C56.9561 30.8657 56.6388 30.5597 56.2308 30.367C55.8341 30.163 55.3978 30.061 54.9218 30.061C54.1624 30.061 53.5278 30.2933 53.0178 30.758C52.5078 31.2227 52.2301 31.9083 52.1848 32.815H57.5058ZM68.2743 33.342V38H66.3363V25.998H70.4163C71.799 25.998 72.836 26.3267 73.5273 26.984C74.23 27.6413 74.5813 28.5423 74.5813 29.687C74.5813 30.8203 74.2243 31.7157 73.5103 32.373C72.7963 33.019 71.765 33.342 70.4163 33.342H68.2743ZM70.2123 31.761C71.8103 31.761 72.6093 31.0697 72.6093 29.687C72.6093 29.007 72.4167 28.4913 72.0313 28.14C71.6573 27.7773 71.051 27.596 70.2123 27.596H68.2743V31.761H70.2123ZM78.7287 30.469C79.046 29.857 79.4993 29.3753 80.0887 29.024C80.678 28.6613 81.358 28.48 82.1287 28.48V30.588H81.5507C80.7007 30.588 80.015 30.7977 79.4937 31.217C78.9837 31.625 78.7287 32.305 78.7287 33.257V38H76.7907V28.633H78.7287V30.469ZM88.3747 28.514C89.2814 28.514 90.0974 28.7067 90.8227 29.092C91.5481 29.4773 92.1147 30.0327 92.5227 30.758C92.9307 31.4833 93.1347 32.3333 93.1347 33.308C93.1347 34.294 92.9307 35.1497 92.5227 35.875C92.1147 36.6003 91.5481 37.1557 90.8227 37.541C90.0974 37.9263 89.2814 38.119 88.3747 38.119C87.4681 38.119 86.6521 37.9263 85.9267 37.541C85.2127 37.1557 84.6461 36.6003 84.2267 35.875C83.8187 35.1383 83.6147 34.2827 83.6147 33.308C83.6147 32.3333 83.8187 31.4833 84.2267 30.758C84.6461 30.0327 85.2127 29.4773 85.9267 29.092C86.6521 28.7067 87.4681 28.514 88.3747 28.514ZM88.3747 30.197C87.8761 30.197 87.4171 30.3103 86.9977 30.537C86.5784 30.7637 86.2384 31.115 85.9777 31.591C85.7284 32.0557 85.6037 32.628 85.6037 33.308C85.6037 33.9993 85.7284 34.5773 85.9777 35.042C86.2384 35.5067 86.5784 35.8523 86.9977 36.079C87.4171 36.3057 87.8761 36.419 88.3747 36.419C88.8734 36.419 89.3324 36.3057 89.7517 36.079C90.1711 35.8523 90.5054 35.5067 90.7547 35.042C91.0154 34.5773 91.1457 33.9993 91.1457 33.308C91.1457 32.628 91.0154 32.0557 90.7547 31.591C90.5054 31.115 90.1711 30.7637 89.7517 30.537C89.3324 30.3103 88.8734 30.197 88.3747 30.197ZM96.5619 27.018C96.1879 27.018 95.8819 26.916 95.6439 26.712C95.4173 26.508 95.3039 26.2417 95.3039 25.913C95.3039 25.5843 95.4173 25.3123 95.6439 25.097C95.8819 24.8817 96.1879 24.774 96.5619 24.774C96.9359 24.774 97.2363 24.8817 97.4629 25.097C97.6896 25.3123 97.8029 25.5843 97.8029 25.913C97.8029 26.2417 97.6896 26.508 97.4629 26.712C97.2363 26.916 96.9359 27.018 96.5619 27.018ZM93.8419 40.754H94.5049C94.8789 40.754 95.1509 40.669 95.3209 40.499C95.5023 40.3403 95.5929 40.0627 95.5929 39.666V28.633H97.5479V39.683C97.5479 41.5303 96.6186 42.454 94.7599 42.454H93.8419V40.754ZM109.072 32.866C109.072 33.1833 109.049 33.461 109.004 33.699H101.796C101.83 34.6623 102.096 35.3763 102.595 35.841C103.093 36.3057 103.711 36.538 104.448 36.538C105.094 36.538 105.638 36.3737 106.08 36.045C106.533 35.7163 106.811 35.28 106.913 34.736H108.987C108.862 35.3933 108.601 35.977 108.205 36.487C107.808 36.997 107.292 37.3993 106.658 37.694C106.023 37.9773 105.315 38.119 104.533 38.119C103.626 38.119 102.821 37.9263 102.119 37.541C101.427 37.1557 100.883 36.6003 100.487 35.875C100.09 35.1497 99.8915 34.294 99.8915 33.308C99.8915 32.3333 100.09 31.4833 100.487 30.758C100.883 30.0327 101.427 29.4773 102.119 29.092C102.821 28.7067 103.626 28.514 104.533 28.514C105.451 28.514 106.25 28.7067 106.93 29.092C107.621 29.466 108.148 29.9873 108.511 30.656C108.885 31.3133 109.072 32.05 109.072 32.866ZM107.117 32.815C107.139 32.203 107.032 31.693 106.794 31.285C106.567 30.8657 106.25 30.5597 105.842 30.367C105.445 30.163 105.009 30.061 104.533 30.061C103.773 30.061 103.139 30.2933 102.629 30.758C102.119 31.2227 101.841 31.9083 101.796 32.815H107.117ZM115.618 28.514C116.83 28.514 117.833 28.837 118.627 29.483C119.42 30.1177 119.913 30.9847 120.106 32.084H118.049C117.935 31.4947 117.658 31.0357 117.216 30.707C116.785 30.367 116.241 30.197 115.584 30.197C114.836 30.197 114.212 30.4633 113.714 30.996C113.215 31.5173 112.966 32.288 112.966 33.308C112.966 34.328 113.215 35.1043 113.714 35.637C114.212 36.1697 114.836 36.436 115.584 36.436C116.241 36.436 116.785 36.266 117.216 35.926C117.658 35.586 117.935 35.1213 118.049 34.532H120.106C119.913 35.6313 119.42 36.504 118.627 37.15C117.833 37.796 116.83 38.119 115.618 38.119C114.711 38.119 113.906 37.9263 113.204 37.541C112.512 37.1557 111.968 36.6003 111.572 35.875C111.175 35.1497 110.977 34.294 110.977 33.308C110.977 32.3333 111.175 31.4833 111.572 30.758C111.968 30.0327 112.512 29.4773 113.204 29.092C113.906 28.7067 114.711 28.514 115.618 28.514ZM127.197 36.317V38H126.007C125.01 38 124.25 37.762 123.729 37.286C123.219 36.7987 122.964 35.994 122.964 34.872V30.282H121.621V28.633H122.964V26.304H124.919V28.633H127.18V30.282H124.919V34.906C124.919 35.4387 125.015 35.807 125.208 36.011C125.412 36.215 125.763 36.317 126.262 36.317H127.197Z" fill="white"/>
</g>
<defs>
<filter id="filter0_d_34_1006" x="0" y="0" width="156" height="80" filterUnits="userSpaceOnUse" color-interpolation-filters="sRGB">
<feFlood flood-opacity="0" result="BackgroundImageFix"/>
<feColorMatrix in="SourceAlpha" type="matrix" values="0 0 0 0 0 0 0 0 0 0 0 0 0 0 0 0 0 0 127 0" result="hardAlpha"/>
<feOffset dy="8"/>
<feGaussianBlur stdDeviation="8"/>
<feColorMatrix type="matrix" values="0 0 0 0 0.25098 0 0 0 0 0.32549 0 0 0 0 0.988235 0 0 0 0.24 0"/>
<feBlend mode="normal" in2="BackgroundImageFix" result="effect1_dropShadow_34_1006"/>
<feBlend mode="normal" in="SourceGraphic" in2="effect1_dropShadow_34_1006" result="shape"/>
</filter>
</defs>
</svg>
