<svg width="105" height="24" viewBox="0 0 105 24" fill="none" xmlns="http://www.w3.org/2000/svg">
<rect width="105" height="24" rx="8" fill="#EBEBFF"/>
<path d="M17.28 16L15.168 12.616H14.196V16H12.828V7.528H15.816C16.784 7.528 17.516 7.764 18.012 8.236C18.516 8.708 18.768 9.332 18.768 10.108C18.768 10.772 18.58 11.316 18.204 11.74C17.836 12.164 17.3 12.436 16.596 12.556L18.816 16H17.28ZM14.196 11.644H15.708C16.812 11.644 17.364 11.156 17.364 10.18C17.364 9.716 17.228 9.356 16.956 9.1C16.692 8.836 16.276 8.704 15.708 8.704H14.196V11.644ZM26.4559 9.388V16H25.0759V14.56C24.9079 15.048 24.6159 15.428 24.1999 15.7C23.7839 15.964 23.2999 16.096 22.7479 16.096C21.9799 16.096 21.3639 15.848 20.8999 15.352C20.4359 14.856 20.2039 14.148 20.2039 13.228V9.388H21.5719V13.084C21.5719 13.684 21.7239 14.148 22.0279 14.476C22.3319 14.796 22.7479 14.956 23.2759 14.956C23.8199 14.956 24.2559 14.78 24.5839 14.428C24.9119 14.076 25.0759 13.564 25.0759 12.892V9.388H26.4559ZM32.2463 9.304C32.8223 9.304 33.3343 9.44 33.7823 9.712C34.2383 9.984 34.5943 10.376 34.8503 10.888C35.1063 11.4 35.2343 12 35.2343 12.688C35.2343 13.384 35.1063 13.988 34.8503 14.5C34.5943 15.012 34.2383 15.404 33.7823 15.676C33.3343 15.948 32.8223 16.084 32.2463 16.084C31.6463 16.084 31.1343 15.936 30.7103 15.64C30.2863 15.344 29.9903 14.952 29.8223 14.464V16H28.4543V7.12H29.8223V10.924C29.9903 10.436 30.2863 10.044 30.7103 9.748C31.1343 9.452 31.6463 9.304 32.2463 9.304ZM31.8263 10.504C31.4423 10.504 31.0983 10.596 30.7943 10.78C30.4903 10.956 30.2503 11.212 30.0743 11.548C29.8983 11.876 29.8103 12.256 29.8103 12.688C29.8103 13.128 29.8983 13.512 30.0743 13.84C30.2503 14.168 30.4903 14.424 30.7943 14.608C31.0983 14.784 31.4423 14.872 31.8263 14.872C32.4343 14.872 32.9223 14.68 33.2903 14.296C33.6583 13.904 33.8423 13.368 33.8423 12.688C33.8423 12.016 33.6583 11.484 33.2903 11.092C32.9223 10.7 32.4343 10.504 31.8263 10.504ZM37.6919 9.388L39.6719 14.248L41.5079 9.388H43.0319L39.0359 19.144H37.5119L38.9399 15.844L36.1559 9.388H37.6919ZM50.4879 9.304C51.1279 9.304 51.7039 9.44 52.2159 9.712C52.7279 9.984 53.1279 10.376 53.4159 10.888C53.7039 11.4 53.8479 12 53.8479 12.688C53.8479 13.384 53.7039 13.988 53.4159 14.5C53.1279 15.012 52.7279 15.404 52.2159 15.676C51.7039 15.948 51.1279 16.084 50.4879 16.084C49.8479 16.084 49.2719 15.948 48.7599 15.676C48.2559 15.404 47.8559 15.012 47.5599 14.5C47.2719 13.98 47.1279 13.376 47.1279 12.688C47.1279 12 47.2719 11.4 47.5599 10.888C47.8559 10.376 48.2559 9.984 48.7599 9.712C49.2719 9.44 49.8479 9.304 50.4879 9.304ZM50.4879 10.492C50.1359 10.492 49.8119 10.572 49.5159 10.732C49.2199 10.892 48.9799 11.14 48.7959 11.476C48.6199 11.804 48.5319 12.208 48.5319 12.688C48.5319 13.176 48.6199 13.584 48.7959 13.912C48.9799 14.24 49.2199 14.484 49.5159 14.644C49.8119 14.804 50.1359 14.884 50.4879 14.884C50.8399 14.884 51.1639 14.804 51.4599 14.644C51.7559 14.484 51.9919 14.24 52.1679 13.912C52.3519 13.584 52.4439 13.176 52.4439 12.688C52.4439 12.208 52.3519 11.804 52.1679 11.476C51.9919 11.14 51.7559 10.892 51.4599 10.732C51.1639 10.572 50.8399 10.492 50.4879 10.492ZM59.2192 9.28C59.9872 9.28 60.6032 9.528 61.0672 10.024C61.5312 10.52 61.7632 11.228 61.7632 12.148V16H60.3952V12.292C60.3952 11.7 60.2432 11.244 59.9392 10.924C59.6352 10.596 59.2192 10.432 58.6912 10.432C58.1472 10.432 57.7112 10.608 57.3832 10.96C57.0552 11.304 56.8912 11.812 56.8912 12.484V16H55.5232V9.388H56.8912V10.84C57.0672 10.344 57.3632 9.96 57.7792 9.688C58.1952 9.416 58.6752 9.28 59.2192 9.28ZM68.2635 10.684C68.4875 10.252 68.8075 9.912 69.2235 9.664C69.6395 9.408 70.1195 9.28 70.6635 9.28V10.768H70.2555C69.6555 10.768 69.1715 10.916 68.8035 11.212C68.4435 11.5 68.2635 11.98 68.2635 12.652V16H66.8955V9.388H68.2635V10.684ZM74.7005 9.304C75.3005 9.304 75.8125 9.452 76.2365 9.748C76.6605 10.044 76.9605 10.436 77.1365 10.924V9.388H78.5045V16H77.1365V14.464C76.9605 14.952 76.6605 15.344 76.2365 15.64C75.8125 15.936 75.3005 16.084 74.7005 16.084C74.1245 16.084 73.6085 15.948 73.1525 15.676C72.7045 15.404 72.3525 15.012 72.0965 14.5C71.8405 13.988 71.7125 13.384 71.7125 12.688C71.7125 12 71.8405 11.4 72.0965 10.888C72.3525 10.376 72.7045 9.984 73.1525 9.712C73.6085 9.44 74.1245 9.304 74.7005 9.304ZM75.1205 10.504C74.5125 10.504 74.0245 10.7 73.6565 11.092C73.2965 11.476 73.1165 12.008 73.1165 12.688C73.1165 13.368 73.2965 13.904 73.6565 14.296C74.0245 14.68 74.5125 14.872 75.1205 14.872C75.5045 14.872 75.8485 14.784 76.1525 14.608C76.4565 14.424 76.6965 14.168 76.8725 13.84C77.0485 13.512 77.1365 13.128 77.1365 12.688C77.1365 12.256 77.0485 11.876 76.8725 11.548C76.6965 11.212 76.4565 10.956 76.1525 10.78C75.8485 10.596 75.5045 10.504 75.1205 10.504ZM80.3141 7.468C80.3141 7.236 80.3941 7.044 80.5541 6.892C80.7141 6.74 80.9261 6.664 81.1901 6.664C81.4541 6.664 81.6661 6.74 81.8261 6.892C81.9941 7.044 82.0781 7.236 82.0781 7.468C82.0781 7.7 81.9941 7.888 81.8261 8.032C81.6661 8.176 81.4541 8.248 81.1901 8.248C80.9261 8.248 80.7141 8.176 80.5541 8.032C80.3941 7.888 80.3141 7.7 80.3141 7.468ZM81.8741 9.388V16H80.5061V9.388H81.8741ZM85.2576 7.12V16H83.8896V7.12H85.2576ZM89.445 9.304C90.221 9.304 90.841 9.504 91.305 9.904C91.777 10.296 92.065 10.824 92.169 11.488H90.873C90.817 11.128 90.661 10.84 90.405 10.624C90.157 10.4 89.825 10.288 89.409 10.288C89.065 10.288 88.797 10.372 88.605 10.54C88.421 10.7 88.329 10.92 88.329 11.2C88.329 11.408 88.397 11.576 88.533 11.704C88.669 11.832 88.837 11.932 89.037 12.004C89.245 12.076 89.537 12.156 89.913 12.244C90.409 12.356 90.809 12.472 91.113 12.592C91.425 12.712 91.689 12.904 91.905 13.168C92.129 13.424 92.241 13.776 92.241 14.224C92.241 14.776 92.029 15.224 91.605 15.568C91.189 15.912 90.625 16.084 89.913 16.084C89.089 16.084 88.421 15.892 87.909 15.508C87.405 15.124 87.101 14.588 86.997 13.9H88.329C88.369 14.26 88.529 14.552 88.809 14.776C89.089 15 89.457 15.112 89.913 15.112C90.241 15.112 90.497 15.028 90.681 14.86C90.873 14.684 90.969 14.464 90.969 14.2C90.969 13.968 90.897 13.784 90.753 13.648C90.609 13.512 90.429 13.408 90.213 13.336C89.997 13.256 89.701 13.176 89.325 13.096C88.845 12.984 88.453 12.872 88.149 12.76C87.853 12.648 87.597 12.468 87.381 12.22C87.173 11.964 87.069 11.62 87.069 11.188C87.069 10.628 87.277 10.176 87.693 9.832C88.117 9.48 88.701 9.304 89.445 9.304Z" fill="#6070FF"/>
</svg>
